<?xml version="1.0" encoding="UTF-8"?><svg id="Layer_2" xmlns="http://www.w3.org/2000/svg" width="634" height="227.04" viewBox="0 0 634 227.04"><defs><style>.cls-1{fill:#ad8a50;}.cls-2{fill:#c00024;}</style></defs><g id="GRAPHISME"><g><g><path class="cls-2" d="M240.42,171.65l-.03,32.63,.23,4.55c-7.94-14.98-18.89-28.76-30.31-37.18h-6.17l-.05,54.42h7.57l.03-43.73c11.42,11.05,22.21,27.13,29.61,43.73h6.64l.04-54.42h-7.56Z"/><polygon class="cls-2" points="300.09 171.65 258.72 171.65 258.71 178.44 275.62 178.45 275.58 226.07 283.14 226.07 283.18 178.46 300.08 178.47 300.09 171.65"/><path class="cls-2" d="M112.35,171.65l-14.99,25.03-14.8-25.03h-6.64c-5.49,8.33-8.58,16.51-8.59,26.7,0,10.19,2.3,18.91,6.23,27.72h7.8c-3.93-9.96-6.24-18.45-6.23-27.24,0-6.72,1.63-12.89,3.95-18.45l18.27,29.11,18.39-29.16c2.31,5.56,4,11.81,4,18.53,0,8.8-2.33,17.25-6.27,27.21h7.8c3.94-8.8,6.27-17.48,6.27-27.67,0-10.19-3.07-18.41-8.54-26.75h-6.64Z"/><polygon class="cls-2" points="318.35 219.17 318.36 199.79 341.14 199.81 341.14 193.02 318.37 193 318.38 178.56 346.87 178.59 346.87 171.65 310.82 171.65 310.78 226.07 346.83 226.07 346.83 219.19 318.35 219.17"/><path class="cls-2" d="M164.69,170.72c-16.06-.01-27.1,11.87-27.12,27.92-.01,16.13,11.02,28.03,27.07,28.04,16.06,.01,27.18-11.87,27.19-28,.01-16.06-11.09-27.95-27.15-27.97Zm-.04,49.02c-11.73,0-19.29-9.12-19.28-21.09,0-12.04,7.58-20.99,19.32-20.98,11.65,.01,19.29,8.97,19.28,21.01-.01,11.96-7.66,21.07-19.32,21.06Z"/><rect class="cls-2" x="465.96" y="171.65" width="7.56" height="54.42"/><path class="cls-2" d="M494.45,185.73c0-4.55,4.25-7.79,10.58-7.78,5.79,0,11.42,2.17,15.97,6.5l4.02-5.01c-4.7-5.33-11.19-8.42-19.44-8.43-11.04,0-18.99,6.16-19,15.04-.02,18.83,31.95,12.3,31.94,25.42,0,3.94-3.17,8.57-12.28,8.56-7.8,0-13.51-3.79-17.52-7.42l-3.86,5.01c4.55,5.49,11.57,9.35,21.14,9.36,14.59,.01,20.23-7.7,20.24-15.96,.02-19.45-31.79-13.61-31.79-25.27Z"/><path class="cls-2" d="M383.35,219.91c-11.58-.01-20.22-8.89-20.21-21.09,0-12.27,8.66-20.99,20.24-20.98,6.56,0,12.27,3.02,15.89,6.49l4.1-5.01c-4.09-4.71-10.49-8.42-19.99-8.43-15.75-.01-28.03,11.32-28.04,27.92-.01,16.67,12.25,28.03,28,28.04,10.19,0,16.68-4.23,21.39-9.33l-3.94-5.02c-3.7,3.47-9.42,7.4-17.45,7.4Z"/><polygon class="cls-2" points="574.21 171.65 532.83 171.65 532.83 178.66 549.73 178.67 549.7 226.07 557.26 226.07 557.3 178.68 574.2 178.69 574.21 171.65"/><path class="cls-2" d="M606.79,171.07c-16.06-.01-27.1,11.87-27.12,27.92-.01,16.13,11.02,28.03,27.07,28.04,16.06,.01,27.18-11.87,27.19-28,.01-16.05-11.09-27.95-27.15-27.97Zm-.04,49.02c-11.73-.01-19.29-9.13-19.28-21.09,0-12.04,7.58-20.99,19.31-20.98,11.66,0,19.29,8.97,19.28,21.01-.01,11.96-7.66,21.06-19.31,21.06Z"/><path class="cls-2" d="M445.04,201.13c5.95-4.16,8.11-9.02,8.12-14.43,0-8.8-6.24-15.04-16.59-15.04h-20.99l-.04,54.42h7.56v-14.69c3.79-1,7.58-2.39,11.29-4.16l11.49,18.85h8.57l-13.49-22.25c1.39-.85,2.78-1.77,4.09-2.7Zm-21.92,2.92l.02-25.4h13.43c6.18,.02,9.03,3.03,9.02,8.36,0,3.32-1.16,6.33-4.87,9.03-5.48,3.93-11.66,6.71-17.61,8.01Z"/></g><g><g><polygon class="cls-2" points="538.75 46.38 502.86 96.7 526.24 96.7 550.44 62.35 538.75 46.38"/><polygon class="cls-2" points="512.61 115.25 587.07 115.25 574.15 96.7 526.24 96.7 512.61 115.25"/><polygon class="cls-2" points="561.65 45.31 550.44 62.35 574.15 96.7 596.84 96.7 561.65 45.31"/></g><g><path class="cls-1" d="M562.57,14.84c.39,.27,.92,.18,1.2-.21l3.65-5.22c.27-.39,.18-.93-.21-1.2h0s.51-.73,.51-.73c.39,.27,.93,.18,1.2-.21,.27-.39,.18-.92-.21-1.2l.5-.71c.83,.25,1.21-.18,1.57-.7,.5-.71,1.39-2.35,.62-4.67-2.45,.07-3.69,1.47-4.18,2.18-.36,.52-.64,1.02-.12,1.71l-.5,.71c-.39-.27-.92-.18-1.2,.21-.27,.39-.18,.93,.21,1.2l-.51,.73c-.39-.27-.92-.18-1.2,.21l-3.65,5.22c-.27,.39-.18,.92,.21,1.2l2.12,1.48Z"/><path class="cls-1" d="M531.13,5.37l.5,.71c-.39,.27-.48,.81-.21,1.2,.27,.39,.81,.48,1.2,.21l.51,.73h0c-.39,.27-.48,.81-.21,1.2l3.65,5.22c.27,.39,.81,.48,1.2,.21l2.11-1.48c.39-.27,.49-.81,.21-1.2l-3.65-5.22c-.27-.39-.81-.48-1.2-.21l-.51-.73c.39-.27,.48-.81,.21-1.2-.27-.39-.81-.48-1.2-.21l-.5-.71c.52-.69,.24-1.2-.12-1.71-.5-.71-1.73-2.11-4.18-2.18-.77,2.32,.12,3.96,.62,4.67,.36,.51,.74,.95,1.57,.7Z"/><path class="cls-1" d="M612.03,134.68h-1.06v2.31h.42v-.8h.4l.64,.8h.47v-.09l-.65-.77c.88-.15,.78-1.46-.22-1.46Zm-.64,1.15v-.75h.64c.52,0,.52,.75-.01,.75h-.63Z"/><path class="cls-1" d="M615.9,127.21v-13.27c0-1.64,.44-3.42,1.18-4.76,.55-1.01,1.51-2.2,2.94-2.2,1.22,0,2.34,.51,3.44,1.6-.05,.15-.08,.31-.08,.47,0,.84,.68,1.52,1.52,1.52s1.52-.68,1.52-1.52-.68-1.52-1.52-1.52c-.11,0-.21,.01-.31,.03-1.41-1.41-2.91-2.1-4.56-2.1s-3.07,.97-4.12,2.74v-3.87c.45-.26,.76-.75,.76-1.31,0-.84-.68-1.52-1.52-1.52s-1.52,.68-1.52,1.52c0,.56,.31,1.05,.76,1.31v2.6c-3.85,.33-7.01,3.12-7.88,6.79l-18.13,.18-11.03-15.43,19.13-.19,6.59,9.19,2.08,1.33-.54-2.41-5.57-8.14,9.98-.1,2.28-.94-2.28-.94-11.41-.11-34.44-50.34,8.88-12.96,.54-2.41-2.08,1.33-8.66,12.12-9.29-13.57,4.74-6.62c3.51,1.39,7.61,.4,10.08-2.57l2.13,1.49c-.04,.52,.18,1.05,.64,1.38,.69,.48,1.64,.32,2.12-.37,.48-.69,.32-1.64-.37-2.12-.46-.32-1.04-.35-1.51-.13l-2.1-1.47-1.07-.75c2.05,.15,3.68-.48,4.6-1.8,.95-1.35,1.24-2.98,.9-4.94,.07-.07,.14-.15,.21-.24,.48-.69,.31-1.64-.37-2.12-.69-.48-1.64-.31-2.12,.37-.48,.69-.32,1.64,.37,2.12,.14,.1,.28,.16,.43,.2,.26,1.52,.04,2.73-.66,3.73-.82,1.17-2.35,1.27-3.49,1.14-1.52-.17-3.23-.82-4.58-1.77l-8.79-6.15-2.01-1.41c.04-.36-.03-.74-.26-1.06-.3-.42-.77-.65-1.25-.65h-.04c-.49-.01-.98,.21-1.29,.65-.22,.32-.3,.7-.26,1.06l-2.01,1.41-8.79,6.15c-1.34,.94-3.05,1.6-4.58,1.77-1.14,.12-2.67,.03-3.49-1.14-.7-1-.92-2.21-.66-3.73,.15-.04,.3-.11,.44-.2,.69-.48,.85-1.43,.37-2.12-.48-.69-1.43-.85-2.12-.37-.69,.48-.86,1.43-.37,2.12,.06,.09,.13,.17,.21,.24-.34,1.96-.05,3.59,.9,4.94,.93,1.32,2.55,1.95,4.6,1.8l-1.07,.75-2.1,1.47c-.48-.22-1.05-.2-1.51,.13-.69,.48-.85,1.43-.37,2.12,.48,.69,1.43,.85,2.12,.37,.46-.32,.68-.85,.64-1.38l2.13-1.49c2.48,2.97,6.58,3.95,10.08,2.57l4.74,6.62-9.36,13.68-8.74-12.22-2.08-1.33,.54,2.41,8.96,13.07-33.72,49.3-8.98-.09c-.88-3.67-4.03-6.46-7.89-6.79v-2.59c.46-.26,.76-.75,.76-1.31,0-.84-.68-1.52-1.52-1.52s-1.52,.68-1.52,1.52c0,.56,.31,1.05,.76,1.31v13.27c0,1.64-.44,3.42-1.18,4.76-.55,1-1.51,2.21-2.94,2.21-1.22,0-2.34-.51-3.44-1.6,.05-.15,.08-.3,.08-.47,0-.84-.68-1.52-1.52-1.52s-1.52,.68-1.52,1.52,.68,1.52,1.52,1.52c.11,0,.21-.01,.31-.03,1.41,1.41,2.91,2.1,4.56,2.1s3.07-.97,4.12-2.73v3.87c-.46,.26-.76,.75-.76,1.31,0,.84,.68,1.52,1.52,1.52s1.52-.68,1.52-1.52c0-.56-.31-1.05-.76-1.31v-2.6c3.85-.33,7.01-3.12,7.89-6.79l6.26-.06-5.69,8.31-.54,2.41,2.08-1.33,6.74-9.41,19.21-.19-11.19,15.64-19.39,.19-2.28,.94,2.28,.94,17.79,.17-5.82,8.14c-3.51-1.39-7.61-.4-10.08,2.57l-2.12-1.48c.04-.52-.18-1.05-.64-1.38-.69-.48-1.64-.32-2.12,.37-.48,.69-.31,1.64,.37,2.12,.46,.32,1.04,.35,1.51,.13l2.09,1.46,8.78,6.15c1.34,.94,2.55,2.32,3.22,3.7,.51,1.03,.94,2.5,.12,3.67-.7,1-1.76,1.62-3.28,1.9-.09-.13-.2-.24-.34-.34-.69-.48-1.64-.31-2.12,.37-.48,.69-.31,1.63,.38,2.12,.68,.48,1.63,.31,2.12-.37,.06-.09,.11-.18,.15-.28,1.96-.35,3.39-1.18,4.33-2.53,.92-1.32,.96-3.07,.12-4.94l1.07,.75,2.1,1.47c-.05,.52,.17,1.06,.64,1.38,.69,.48,1.64,.32,2.12-.37,.48-.69,.31-1.63-.38-2.12-.46-.32-1.04-.35-1.51-.13l-2.13-1.49c1.94-3.34,1.47-7.53-1.04-10.35l7.18-10.47,71.85,.71,6.69,9.76c-2.5,2.82-2.98,7.01-1.04,10.35l-2.13,1.49c-.48-.22-1.05-.2-1.51,.13-.69,.48-.85,1.43-.37,2.12,.48,.69,1.43,.86,2.12,.37,.46-.32,.68-.85,.64-1.38l2.1-1.47,1.07-.75c-.84,1.87-.8,3.62,.12,4.94,.95,1.35,2.37,2.19,4.34,2.53,.04,.09,.09,.19,.15,.28,.48,.69,1.43,.85,2.12,.37,.69-.48,.85-1.43,.37-2.12-.48-.69-1.43-.85-2.12-.37-.14,.1-.25,.21-.34,.34-1.52-.28-2.58-.9-3.28-1.9-.82-1.17-.39-2.64,.12-3.67,.68-1.37,1.88-2.76,3.22-3.7l8.79-6.15,2.09-1.46c.48,.22,1.05,.2,1.51-.13,.69-.48,.85-1.43,.37-2.12-.48-.69-1.43-.85-2.12-.37-.46,.32-.68,.85-.64,1.38l-2.12,1.48c-2.48-2.97-6.58-3.95-10.08-2.57l-5.25-7.34,15.41,.15c.88,3.67,4.03,6.46,7.88,6.79v2.58c-.45,.26-.76,.75-.76,1.31,0,.84,.68,1.52,1.52,1.52s1.52-.68,1.52-1.52c0-.56-.31-1.05-.76-1.31Zm-125.86-35.99c.36,.26,.69,.54,.99,.86-.93,.96-2.09,1.63-3.36,1.97,.53-1.11,1.33-2.09,2.37-2.83Zm-.55,5.25h-2.48c.02-.26,.06-.51,.11-.76,.93-.14,1.83-.43,2.66-.85-.14,.53-.25,1.07-.29,1.61Zm.29,3.09c-.83-.42-1.72-.71-2.66-.85-.05-.24-.08-.48-.11-.73h2.48c.05,.53,.14,1.06,.29,1.58Zm-3.26-9.69c.74,.07,1.44,.26,2.1,.54-.86,.73-1.57,1.6-2.1,2.57v-3.11Zm0,14.67v-3.11c.53,.97,1.23,1.84,2.1,2.57-.66,.28-1.36,.46-2.1,.54Zm3.53-1.35c-1.04-.74-1.84-1.71-2.37-2.83,1.27,.34,2.43,1.02,3.36,1.97-.3,.31-.64,.6-.99,.85Zm2.01-2.16c-.56-.93-.92-1.97-1.03-3.06h2.07c-.11,1.11-.48,2.15-1.04,3.06Zm-1.04-4.57c.11-1.1,.46-2.15,1.04-3.09,.56,.92,.93,1.97,1.04,3.09h-2.08Zm13.18,30.39l-1.19,1.71c-.85-.72-1.5-1.62-1.94-2.63,1.08,.07,2.15,.37,3.13,.92Zm-9.18,1.61c.49-.56,1.04-1.03,1.65-1.41,.1,1.12,.41,2.2,.9,3.19l-2.55-1.78Zm4.08,1.44c-.61-1.07-.94-2.29-.96-3.56,.42-.15,.84-.25,1.27-.32,.25,1.31,.14,2.65-.31,3.88Zm1.6,1.94c-.2-.17-.38-.35-.56-.53,.42-.85,.69-1.75,.82-2.67,.35,.42,.73,.81,1.16,1.17l-1.42,2.03Zm1.9,1.19c-.22-.1-.44-.21-.66-.33l1.42-2.03c.47,.27,.96,.49,1.46,.67-.82,.44-1.57,1.01-2.22,1.69Zm4.43,3.84l-2.55-1.78c.33,.04,.67,.06,1.01,.06,.77,0,1.54-.1,2.29-.3-.15,.7-.4,1.38-.76,2.03Zm.92-3.66c-.8,.28-1.63,.42-2.45,.42-.41,0-.82-.03-1.22-.1,1.01-.85,2.23-1.41,3.54-1.62,.08,.43,.12,.86,.13,1.3Zm-.61-2.88c-1.08-.07-2.14-.38-3.1-.91l1.19-1.7c.84,.73,1.48,1.63,1.91,2.6Zm87.61-34.2l-19.4-.19-23.86-33.37,9.39-13.69,33.87,47.26Zm-23.58-.23l-42.25-.41,20.98-30.6,21.27,31.01Zm-15.6-74.87c-.86-.74-1.51-1.64-1.94-2.63,1.1,.07,2.16,.38,3.13,.92l-1.2,1.71Zm1.24,.86l1.19-1.7c.82,.72,1.47,1.61,1.91,2.6-1.06-.07-2.12-.36-3.1-.9Zm9.14-1.62c-.49,.56-1.04,1.03-1.65,1.41-.1-1.12-.4-2.2-.9-3.19l2.55,1.78Zm-4.08-1.45c.61,1.07,.94,2.29,.96,3.56-.41,.14-.84,.25-1.27,.32-.25-1.31-.14-2.65,.31-3.89Zm-1.04-1.41c-.42,.85-.69,1.75-.83,2.67-.34-.41-.71-.79-1.13-1.14l1.42-2.03c.18,.16,.36,.33,.53,.5Zm-1.77-1.38l-1.42,2.03c-.47-.28-.98-.5-1.49-.69,.82-.44,1.57-1.01,2.23-1.69,.23,.1,.46,.22,.69,.34Zm-5.12-4.19l2.55,1.78c-1.1-.13-2.22-.05-3.3,.24,.15-.7,.4-1.38,.76-2.03Zm2.75,3.34c-1.01,.84-2.23,1.41-3.54,1.62-.08-.43-.13-.87-.13-1.3,1.2-.42,2.46-.52,3.68-.32Zm-10.67-3.34c.36,.65,.61,1.33,.76,2.03-1.09-.29-2.21-.37-3.31-.24l2.55-1.78Zm.92,3.66c0,.44-.05,.87-.13,1.3-1.32-.21-2.54-.78-3.54-1.62,1.21-.21,2.47-.1,3.67,.32Zm-5.35,.18c.65,.68,1.4,1.25,2.22,1.69-.51,.18-1.02,.41-1.49,.69l-1.42-2.03c.23-.13,.46-.24,.69-.34Zm-5.94,5.98c-.6-.38-1.16-.85-1.65-1.41l2.55-1.78c-.5,.99-.8,2.07-.9,3.19Zm2.75,1.03c-.43-.07-.85-.18-1.27-.32,.01-1.27,.35-2.49,.96-3.56,.45,1.24,.56,2.57,.31,3.89Zm.73-5.29c.17-.18,.34-.34,.53-.5l1.42,2.03c-.41,.35-.79,.73-1.13,1.14-.13-.92-.41-1.82-.83-2.67Zm.92,5.38c.44-1,1.09-1.88,1.91-2.6l1.19,1.7c-.98,.54-2.03,.84-3.1,.9Zm4.34-1.77l-1.2-1.71c.97-.54,2.03-.85,3.13-.92-.43,.99-1.08,1.89-1.94,2.63Zm1.84,.31c2.5-2.82,2.98-7.01,1.04-10.35l2.09-1.46c.2,.09,.42,.12,.63,.11,.02,0,.04,0,.05,0,.19,0,.39-.04,.57-.11l2.09,1.46c-1.94,3.34-1.47,7.53,1.04,10.35l-3.75,5.49-3.75-5.49Zm3.76,12.33l9.51,13.27-9.59,13.41-9.51-13.3,9.58-13.38Zm-44.11,61.59l33.13-46.26,9.31,13.57-23.51,32.88-18.94-.19Zm9.95,19.34l10.72-15.64,46.41-.46,10.58,15.43-67.71,.67Zm77.15,22.28c-.36-.65-.61-1.33-.76-2.03,1.09,.29,2.21,.37,3.3,.25l-2.55,1.78Zm1.53-3.24c-.82,0-1.65-.14-2.45-.42,0-.44,.05-.87,.13-1.3,1.32,.21,2.54,.78,3.54,1.62-.4,.07-.81,.1-1.22,.1Zm2.9-.6c-.65-.68-1.41-1.25-2.23-1.69,.5-.18,.99-.4,1.46-.67l1.42,2.03c-.22,.12-.43,.23-.65,.33Zm5.94-5.98c.6,.38,1.16,.85,1.64,1.41l-2.55,1.78c.5-.99,.8-2.07,.9-3.19Zm-2.75-1.03c.43,.07,.86,.18,1.27,.32-.01,1.27-.35,2.49-.96,3.56-.45-1.23-.56-2.57-.31-3.88Zm-.73,5.29c-.18,.18-.36,.36-.56,.53l-1.42-2.03c.42-.35,.81-.74,1.16-1.17,.13,.92,.41,1.82,.82,2.67Zm-.92-5.38c-.44,1.01-1.09,1.9-1.94,2.63l-1.2-1.71c.99-.55,2.06-.85,3.13-.92Zm-4.37,1.8l1.19,1.7c-.95,.53-2.01,.83-3.1,.91,.43-.98,1.07-1.87,1.91-2.6Zm16.09-17.95c1.03,.74,1.84,1.71,2.37,2.83-1.27-.34-2.43-1.02-3.36-1.97,.31-.31,.64-.6,.99-.85Zm.55,5.21c-.05-.54-.15-1.06-.29-1.58,.83,.42,1.73,.71,2.66,.85,.05,.24,.08,.48,.11,.72h-2.48Zm2.48,1.52c-.03,.26-.06,.51-.11,.76-.93,.14-1.83,.43-2.66,.86,.14-.53,.25-1.07,.29-1.62h2.48Zm-5.04-4.57c.56,.93,.92,1.97,1.03,3.06h-2.07c.11-1.11,.48-2.15,1.04-3.06Zm0,7.67c-.56-.92-.93-1.97-1.04-3.09h2.08c-.11,1.11-.46,2.15-1.04,3.09Zm2.01,2.16c-.36-.25-.69-.54-1-.85,.93-.96,2.09-1.63,3.36-1.97-.53,1.12-1.33,2.09-2.37,2.83Zm3.52,1.35c-.74-.07-1.44-.26-2.1-.54,.86-.72,1.57-1.6,2.1-2.57v3.11Zm0-11.56c-.52-.97-1.23-1.84-2.1-2.57,.66-.28,1.36-.47,2.1-.54v3.11Z"/><path class="cls-1" d="M608.23,143.37l-.5-.71c.39-.27,.48-.81,.21-1.2-.27-.39-.81-.48-1.2-.21l-.51-.72c.39-.27,.48-.81,.21-1.2l-3.65-5.22c-.17-.24-.43-.36-.71-.36-.17,0-.34,.05-.49,.16l-2.11,1.48c-.39,.27-.48,.81-.21,1.2l3.65,5.22c.27,.39,.81,.48,1.2,.21l.51,.72c-.39,.27-.48,.81-.21,1.2,.27,.39,.81,.49,1.2,.21l.5,.71c-.52,.69-.24,1.2,.12,1.71,.5,.71,1.74,2.11,4.18,2.18,.77-2.33-.12-3.97-.62-4.68-.36-.51-.74-.95-1.57-.7Z"/><path class="cls-1" d="M629.82,113.6c-.63,0-1.2,.07-1.47,.88h-.87c0-.47-.39-.86-.86-.86s-.86,.38-.86,.86h-.89c0-.47-.38-.86-.86-.86h-6.37c-.48,0-.86,.38-.86,.86v2.58c0,.47,.38,.86,.86,.86h6.37c.47,0,.86-.39,.86-.86h.89c0,.47,.39,.86,.86,.86s.86-.39,.86-.86h.87c.27,.82,.84,.89,1.47,.89,.87,0,2.72-.21,4.19-2.18-1.46-1.96-3.32-2.18-4.19-2.18Z"/><path class="cls-1" d="M475.14,98.5h.88c0,.48,.39,.86,.86,.86h6.37c.48,0,.86-.38,.86-.86v-2.58c0-.48-.39-.86-.86-.86h-6.37c-.47,0-.86,.39-.86,.86h-.88c0-.48-.39-.86-.86-.86s-.86,.39-.86,.86h-.87c-.27-.82-.84-.89-1.47-.89-.87,0-2.72,.21-4.18,2.18,1.46,1.96,3.32,2.18,4.18,2.18,.63,0,1.2-.07,1.47-.89h.87c0,.48,.39,.86,.86,.86s.86-.38,.86-.86Z"/><path class="cls-1" d="M500.7,135.38l-2.11-1.48c-.15-.11-.32-.16-.49-.16-.27,0-.54,.13-.71,.36l-3.65,5.22c-.27,.39-.18,.93,.21,1.2l-.51,.72c-.39-.27-.92-.18-1.2,.21-.27,.39-.18,.93,.21,1.2l-.5,.71c-.83-.25-1.21,.18-1.57,.7-.5,.71-1.39,2.35-.62,4.68,2.45-.07,3.69-1.47,4.18-2.18,.36-.51,.64-1.02,.12-1.71l.5-.71c.39,.27,.92,.18,1.2-.21,.27-.39,.18-.92-.21-1.2l.51-.72c.39,.27,.93,.18,1.2-.21l3.65-5.22c.27-.39,.18-.92-.21-1.2Z"/><path class="cls-1" d="M611.82,133.61c-1.42,0-2.23,1.03-2.23,2.25s.8,2.25,2.23,2.25,2.23-1.03,2.23-2.25-.8-2.25-2.23-2.25Zm0,4.08c-1.12,0-1.76-.81-1.76-1.83,0-1.03,.64-1.84,1.76-1.84s1.77,.82,1.77,1.84-.64,1.83-1.77,1.83Z"/><polygon class="cls-1" points="526.41 87.12 527.17 86.03 521.26 81.9 520.48 83.02 522.97 87.43 517.97 86.6 517.19 87.71 523.1 91.85 523.85 90.77 519.69 87.86 523.93 88.56 524.36 87.94 522.25 84.21 526.41 87.12"/><path class="cls-1" d="M552.68,85.61s.38-4.18,3.12-4.22c1.26-.02,1.38,1.03,1.38,1.03v.03c-.22-.08-.45-.13-.69-.13-1.05,0-1.9,.85-1.9,1.9s.85,1.9,1.9,1.9c0,0,3.26,.4,3.83-2.68,.27-1.45-.75-4.21-3.95-4.21-.35,0-.73,.03-1.14,.11-3.38,.6-3.65,6.28-3.65,6.28h1.09Z"/><path class="cls-1" d="M548.94,73.3c-.69,1.3-.97,2.94-.94,3.96,.04,1.57,.65,2.85,.99,3.75,.86,2.28,.86,4.61,.86,4.61h1.21s0-2.33,.86-4.61c.34-.9,.95-2.18,.99-3.75,.03-1.02-.25-2.66-.94-3.96-.58-1.09-1.41-1.78-1.5-1.86,0,0,0,0,0,0h0s0,0,0,0c-.09,.08-.92,.77-1.5,1.86Z"/><path class="cls-1" d="M555.29,88.36c-.78,0-1.43,.52-1.64,1.23-.05,0-.35-.03-.67-.39-.32-.36-.28-1.56-.28-1.56h-1.08s-.1,2.04,1,3.08c1.44,1.36,2.67,1.07,2.67,1.07,.95,0,1.71-.77,1.71-1.71s-.77-1.71-1.71-1.71Z"/><path class="cls-1" d="M550.8,87.63h-.7c-.05,.47-.16,1.11-.39,1.75-.17,.48-.48,1.16-.51,2-.01,.54,.13,1.42,.48,2.11,.28,.54,.66,.89,.75,.97h0s.01,0,.01,0c.09-.08,.48-.44,.75-.97,.35-.69,.5-1.57,.48-2.11-.02-.84-.33-1.52-.5-2-.23-.64-.34-1.28-.39-1.75Z"/><polygon class="cls-1" points="543.23 63.09 542.31 62.45 540.22 65.43 538.65 64.32 540.34 61.91 539.42 61.27 537.73 63.69 536.17 62.59 538.22 59.65 537.29 59 534.48 63.02 540.39 67.15 543.23 63.09"/><path class="cls-1" d="M577.74,85.64c-1.69,1.18-2.51,2.9-1.11,4.89,1.39,1.98,3.29,1.81,4.98,.63,1.7-1.19,2.5-2.91,1.11-4.89-.75-1.07-1.64-1.51-2.56-1.51-.8,0-1.63,.33-2.42,.89Zm4.04,1.28c.85,1.21,.23,2.27-.97,3.11-.61,.43-1.22,.69-1.79,.69s-1.06-.25-1.47-.85c-.85-1.21-.23-2.28,.97-3.12,1.2-.84,2.4-1.06,3.26,.16Z"/><path class="cls-1" d="M524.98,82.87c1.69,1.18,3.58,1.36,4.98-.63,1.39-1.98,.57-3.71-1.11-4.89-.79-.55-1.62-.88-2.42-.88-.93,0-1.82,.44-2.56,1.51-1.39,1.99-.58,3.7,1.11,4.89Zm-.18-4.24c.85-1.21,2.06-1,3.26-.16,1.2,.84,1.82,1.91,.97,3.12-.42,.6-.93,.85-1.48,.85s-1.18-.27-1.79-.69c-1.2-.84-1.81-1.9-.96-3.12Z"/><polygon class="cls-1" points="533.33 77.24 529.02 74.23 535.2 74.56 535.97 73.46 530.07 69.32 529.3 70.41 533.6 73.42 527.44 73.08 526.66 74.18 532.57 78.32 533.33 77.24"/><polygon class="cls-1" points="532.83 67.36 537.8 70.84 538.57 69.75 533.59 66.27 534.83 64.49 533.9 63.84 530.65 68.5 531.57 69.15 532.83 67.36"/><path class="cls-1" d="M571.39,77.19c.34,1.27,.77,2.2,.17,2.63-.49,.34-1.07,.02-1.44-.5-.45-.64-.73-1.8-.8-2.52l-1.13,.06c.05,.82,.35,2.13,1.04,3.12,.86,1.23,2.13,1.66,3.19,.92,1.11-.77,.84-2.02,.57-2.94-.3-1.17-.78-2.02-.18-2.44,.48-.34,1-.02,1.35,.48,.36,.52,.66,1.45,.77,2.11l1.13-.07c-.11-.81-.47-1.92-1.03-2.73-.57-.81-1.29-1.24-2-1.24-.37,0-.75,.12-1.09,.36-1.03,.72-.83,1.87-.56,2.77Z"/><path class="cls-1" d="M562.52,70.18l2.36-1.65,.8,1.15-1.37,3.07,.83,1.19,1.35-3.23c.84,.84,1.77,1.04,2.78,.33,1.25-.87,1.17-2.11,.15-3.56l-1.76-2.51-5.91,4.14,.76,1.08Zm5.05-3.53l.98,1.39c.5,.72,.65,1.4-.04,1.89-.21,.15-.42,.22-.61,.22-.44,0-.83-.34-1.19-.85l-.96-1.37,1.82-1.28Z"/><rect class="cls-1" x="565.71" y="72.94" width="7.21" height="1.32" transform="translate(60.7 339.77) rotate(-34.99)"/><polygon class="cls-1" points="572.42 84.32 573.18 85.41 578.16 81.92 579.4 83.69 580.33 83.04 577.07 78.4 576.15 79.04 577.4 80.83 572.42 84.32"/><path class="cls-1" d="M544.39,86.12c1.05,0,1.9-.85,1.9-1.9s-.85-1.9-1.9-1.9c-.24,0-.47,.04-.68,.13v-.03s.12-1.05,1.38-1.03c2.74,.04,3.12,4.22,3.12,4.22h1.09s-.27-5.67-3.65-6.28c-.41-.07-.79-.11-1.14-.11-3.2,0-4.22,2.77-3.95,4.21,.57,3.08,3.83,2.68,3.83,2.68Z"/><path class="cls-1" d="M559.24,65.69c.64,.92,1.62,1.42,2.55,1.83l.43-1.08c-.72-.33-1.5-.71-1.93-1.32-.6-.85-.19-1.94,1.1-2.84,1.29-.91,2.45-.91,3.04-.06,.43,.62,.52,1.48,.58,2.27l1.16-.03c-.07-1.02-.2-2.11-.84-3.03-.52-.75-1.28-1.2-2.22-1.2-.74,0-1.58,.28-2.51,.93-2.1,1.47-2.3,3.2-1.36,4.54Z"/><path class="cls-1" d="M547.31,86.63c0,.31,.25,.57,.57,.57h5.06c.31,0,.57-.25,.57-.57s-.25-.57-.57-.57h-5.06c-.31,0-.57,.25-.57,.57Z"/><path class="cls-1" d="M549.28,87.63h-1.08s.03,1.2-.28,1.56c-.31,.36-.62,.39-.67,.39-.21-.71-.87-1.23-1.64-1.23-.95,0-1.71,.77-1.71,1.71s.77,1.71,1.71,1.71c0,0,1.23,.29,2.67-1.07,1.1-1.04,1.01-3.08,1.01-3.08Z"/><path class="cls-1" d="M559.66,109.35c.76-1.08,1.41-2.27,2.1-3.35,.1-.16-.66,.03-.74,.1-.95,.77-2.89,2.27-4.06,1.35-.12-.1-.23-.2-.33-.32,1.37-1.18,2.67-2.48,3.84-3.81,.57-.65,1.29-1.76,.68-2.61-.54-.74-1.7-.39-2.38-.08-1.1,.5-1.97,1.38-2.59,2.42-.65,1.11-1.23,2.64-.6,3.88,.06,.12,.13,.23,.2,.33-.05,.05-.11,.1-.16,.14-.5,.44-1.02,.86-1.56,1.26-.33,.25-.68,.53-1.05,.74-.07-.33-.19-.66-.36-.96-.47-.85-1.21-1.49-1.68-2.32,.3-.64,.65-1.26,.74-1.96,.1-.78-.39-1.28-1.17-1.07-1.43,.39-.99,1.98-.35,3.17-.32,.7-.59,1.41-.5,2.21,.12,1.01,.85,1.65,1.87,1.63,.25,0,.5-.04,.73-.1,.08,1.06-.63,2.94-1.95,2.6-1.07-.28-1.61-1.71-1.95-2.63-.42-1.14-.64-2.32-.76-3.53-.07-.65-.12-1.3-.25-1.94-.08-.42-.17-1.07-.58-1.32-.43-.26-.95-.07-1.34,.23-.14-.48-.4-.87-.86-1.07-.91-.4-2.07,.05-2.74,.7-.11,.11-.22,.23-.32,.35-.2-1.15-.53-2.92-1.79-3.23-.16-.04-.31-.06-.46-.06-1.03,0-1.96,.84-2.23,1.81-.43,1.59,.01,3.39,.84,4.77,.12,.2,.86-.1,.79-.21-.68-1.14-1.04-2.45-.98-3.78,.03-.6,.15-1.56,.69-1.95,.99-.73,1.63,.4,1.93,1.2,.29,.76,.46,1.58,.58,2.41-.44,.84-.7,1.81-.81,2.7-.07,.6-.08,1.21-.02,1.81,.05,.47,.11,1.67,.54,1.99,.23,.18,.72,.04,.93-.12,.4-.31,.39-1.23,.43-1.7,.15-1.62-.04-3.24-.3-4.84,.35-.68,.83-1.26,1.46-1.5,1.1-.43,1.5,.52,1.63,1.58-1.15,1.88-1.84,4.74-.9,6.73,.09,.18,.73-.02,.78-.17,.55-1.55,.88-3.18,.94-4.83,.02-.52,.08-1.25,0-1.93,.02-.03,.03-.06,.05-.09,.07-.11,.25-.46,.34-.48,.25-.06,.36,.29,.43,.45,.5,1.23,.38,2.73,.6,4.03,.23,1.29,.62,2.67,1.34,3.78,1.17,1.82,3.44,1.48,4.4-.34,.29-.54,.39-1.13,.32-1.71,.5-.24,.96-.56,1.4-.88,.54-.4,1.07-.81,1.6-1.25,1.12,1.06,2.98,.27,4.39-.64-.5,.8-1.01,1.59-1.53,2.37-.03,.05-.06,.09-.09,.13-.19,.03-.37,.07-.56,.11-.69,.15-1.39,.37-1.99,.75-.39,.24-1.25,.89-1.06,1.45,.18,.53,1.07,.31,1.45,.2,.66-.19,1.23-.58,1.71-1.06,.38-.38,.73-.81,1.05-1.25,1.3-.15,2.61-.08,3.89,.18,.19,.04,.87-.27,.65-.31-1.42-.28-2.88-.35-4.31-.18Zm-9.17-5.61c.18-.4,.36-.16,.43,.18,.08,.42-.11,.9-.26,1.28-.02,.05-.04,.09-.05,.13-.19-.51-.33-1.11-.11-1.6Zm1.58,6c-.05,0-.1,0-.16,0-1.21,0-1.61-1.29-1.41-2.34,.03-.14,.06-.28,.11-.41,.11,.16,.22,.31,.31,.42,.58,.7,1.14,1.41,1.32,2.31-.06,0-.12,.02-.18,.03Zm-10.96,.42c-.16-.45-.2-1.08-.24-1.37-.08-.73-.06-1.46,.05-2.17,.04-.24,.09-.5,.16-.78,.01,.11,.02,.22,.03,.33,.08,.77,.13,1.55,.11,2.33-.01,.48,0,1.12-.11,1.66Zm3.68-3.93c-.04,1.14-.22,2.26-.51,3.35-.13-.95,0-1.94,.22-2.85,.08-.34,.18-.67,.3-.99,0,.19-.01,.36-.02,.49Zm11.55-1.93c.34-1.04,.94-2.03,1.75-2.77,.21-.19,.43-.37,.67-.52,.38-.24,1.08-.46,1.48-.19,.43,.29,.38,1.01,.24,1.42-.36,1.09-1.49,1.95-2.28,2.74-.6,.6-1.2,1.18-1.82,1.75-.36-.73-.29-1.66-.04-2.44Zm1.48,6.52c-.2,.22-1.08,.99-1.54,.99-.15,0-.26-.08-.28-.3-.06-.56,.77-1.09,1.18-1.29,.45-.22,.95-.34,1.45-.42-.25,.36-.51,.71-.81,1.03Z"/></g></g><path class="cls-1" d="M66.1,219.68c-.83,.31-1.64,.63-2.48,.93-1.64,.58-3.25,1.12-4.85,1.59-1.6,.48-3.06,.84-4.37,1.09-2.51,.46-4.48,.66-5.91,.59-1.43-.06-2.45-.31-3.06-.75-.62-.44-.9-1.01-.83-1.72,.07-.71,.35-1.5,.86-2.37,.77,.83,1.79,1.38,3.06,1.63,1.28,.25,2.54,.25,3.8,0,1.26-.25,2.36-.71,3.32-1.37,.96-.67,1.5-1.52,1.63-2.56,.09-1-.14-1.83-.67-2.5-.53-.67-1.28-1.15-2.23-1.47-.96-.31-2.03-.44-3.22-.37-1.2,.06-2.42,.29-3.67,.69-1.26,.39-2.45,.97-3.57,1.72-.21,.14-.39,.32-.59,.47-.46,.24-1.01,.53-1.68,.88-1.4,.73-2.99,1.53-4.76,2.41-1.77,.87-3.57,1.72-5.43,2.53-1.85,.82-3.46,1.43-4.82,1.84-1.36,.46-2.44,.73-3.22,.81-.79,.08-1.28-.08-1.47-.5-.19-.42-.1-1.13,.29-2.16,.38-1.02,1.04-2.43,1.98-4.22l1.85-3.62c2.55-1.96,4.98-4,7.28-6.12,2.3-2.12,4.38-4.22,6.26-6.28,1.87-2.06,3.48-4.03,4.82-5.91,1.34-1.87,2.35-3.54,3.03-5,.68-1.46,.99-2.66,.93-3.62-.06-.96-.59-1.54-1.56-1.75-1.28-.29-2.69-.13-4.25,.47-1.55,.61-3.12,1.52-4.69,2.75-1.57,1.23-3.11,2.67-4.6,4.34-1.49,1.67-2.83,3.44-4.02,5.31-1.4,2.21-2.87,4.65-4.4,7.34-1.53,2.69-2.98,5.3-4.34,7.84-.89-.29-2.12-.56-3.67-.81-1.55-.25-3.21-.24-4.98,.03-1.77,.27-3.51,.9-5.23,1.9-1.72,1-3.2,2.56-4.44,4.69-1.36,2.38-2.05,4.12-2.07,5.22-.02,1.1,.32,1.81,1.02,2.13,.7,.31,1.62,.35,2.75,.12,1.13-.23,2.18-.49,3.16-.78,.51-.16,1.15-.45,1.91-.84,.77-.4,1.6-.85,2.49-1.38,.89-.52,1.82-1.08,2.78-1.69,.96-.6,1.88-1.2,2.78-1.78-.47,1.04-.82,2.01-1.05,2.91-.24,.9-.22,1.65,.03,2.25,.25,.61,.82,1.05,1.69,1.34,.87,.29,2.18,.37,3.93,.25,1.45-.13,3.03-.45,4.76-.97,1.72-.52,3.44-1.13,5.14-1.81,1.7-.69,3.36-1.42,4.98-2.22,1.26-.61,2.38-1.19,3.45-1.74-.17,.32-.39,.6-.53,.92-.45,1-.54,1.94-.29,2.81,.26,.88,1,1.6,2.23,2.19,1.24,.58,3.23,.86,6,.81,2.04-.04,4.18-.28,6.42-.72,2.23-.44,4.45-.98,6.64-1.63,2.19-.65,4.31-1.35,6.35-2.12,.05-.02,.09-.03,.14-.05-.28-.64-.53-1.3-.76-1.97Zm-16.52-4.73c1.04-.48,1.97-.69,2.78-.62,.81,.06,1.46,.32,1.95,.78,.49,.46,.69,1,.61,1.62-.09,.67-.47,1.19-1.15,1.56-.68,.38-1.46,.61-2.33,.69-.87,.09-1.77,.01-2.68-.22-.92-.23-1.65-.63-2.2-1.22,.98-1.25,1.99-2.11,3.03-2.59Zm-19.35-9.15c.49-.87,.95-1.66,1.37-2.37,1.11-1.87,2.29-3.78,3.54-5.72,1.25-1.94,2.5-3.71,3.73-5.31,1.23-1.61,2.41-2.91,3.54-3.91,1.13-1,2.12-1.5,2.97-1.5,.47,0,.62,.34,.45,1.03-.17,.69-.61,1.59-1.31,2.72-.7,1.12-1.62,2.43-2.74,3.9-1.13,1.48-2.39,3.03-3.8,4.66-1.4,1.62-2.9,3.24-4.5,4.84-1.6,1.6-3.23,3.11-4.89,4.53,.59-1.04,1.14-2,1.63-2.88Zm-11.04,9.31c-.11,.17-.2,.36-.29,.56-.04,0-.06,.04-.06,.13-1.19,.83-2.46,1.68-3.8,2.53-1.34,.86-2.6,1.63-3.77,2.31-1.17,.69-2.2,1.22-3.1,1.6-.89,.37-1.51,.46-1.85,.25-.13-.09-.1-.42,.1-1,.19-.58,.52-1.26,.99-2.03,.47-.77,1.09-1.56,1.85-2.38,.77-.81,1.66-1.5,2.68-2.06,1.02-.56,2.17-.92,3.45-1.06,1.28-.15,2.66,.05,4.15,.59-.13,.21-.24,.4-.35,.56Z"/><path class="cls-1" d="M465.44,108.2c-4.31,1.39-95.09,47.7-69.83,20.04,.28-.35,.49-.71,.65-1.06-1.63-2.25-3.72-4.52-6.22-6.61-1.87-1.57-3.78-2.9-5.66-3.97-2.09,.81-4.31,2.51-7.39,4.36-6.67,4.23-15.02,9.94-21.73,13.66-3.25,1.83-5.17,2.51-5.76,2.05-1.01-2.67,1.38-7.26,3.1-10.7,5.33-10.27,15.24-18.47,27.49-18.56,4.73-.23,10.05,.88,15.96,3.3,.37,.19,.74,.33,1.12,.45l-.13-.14c1.9-.96,3.91-2.39,5.81-4.22-11.71-7.36-23.93-8.76-34.54-7.87-9.31,1.22-18.32,5.01-24.96,12.19-19.74,10.17-43.79,21.16-66.1,27.15,22.69-21.13,20.99-50.23-15.75-40.99-9.9,2.25-20.56,6.71-28.7,11.43-10.03,4.82-21.09,10.12-31.99,14.95-6.25,2.68-54.03,24.36-34.69,3.75,.12-.15,.22-.3,.32-.46-1.6-2.17-3.64-4.36-6.05-6.38-2.14-1.8-4.35-3.28-6.5-4.42-1.67,.86-3.36,2.31-6.39,3.98-6.67,4.24-15.02,9.94-21.73,13.67-5.02,2.5-7,4.01-5.65-1.48,6.22-20.52,25.85-31.81,46.44-22.44,.03,.02,2.96-2.01,4.34-3.38,.68-.67,1.31-1.36,1.89-2.06-.01-.02-.03-.03-.05-.05-2.71-1.48-5.35-2.67-7.94-3.62-4.46-1.44-9.3-2.44-14.15-2.87-10.46-.47-19.93,1.32-29.82,6.56-3.27,1.72-6.48,3.55-9.67,5.18-2.59,1.24-5.41,2.66-8.42,4.17-23.28,11.71-57.44,29.03-76.33,15.32-21.04-18.64,2.63-60.1,11.22-71.18,8.85-11.41,20.02-20.84,32.53-27.1,14.78-7.73,42.01-15.08,52.98-.8,2.29,3.49,2.25,8.05-.11,13.66-.06,.12-.11,.25-.17,.38,3.34-1.53,6.75-3.44,10.13-5.72,3.33-2.25,6.35-4.68,9.01-7.19,.55-1.31,1-2.51,1.31-3.52,5.02-18.78-7.54-26.19-22.68-27.4-.27,0-.54-.01-.81-.01C93.08,.24,61.18,17.35,39.44,40.09,15.01,66.71,7.17,93,3.15,106.79c-3.82,14.57-9.53,49.01,19.71,49.01,17.82,0,43.48-12.65,62.59-22.75,7.84-4.14,14.58-7.88,19.22-10.21-8.62,14.81-10.95,31.44,10.34,23.93,12.01-4.71,24.56-13.34,35.36-19.58-5.8,6.71-8.91,17.89,4.65,18.45,8.26,.54,18.57-3.74,27.6-6.72,15.33-5.56,32.85-13.67,47-20.61,8.51-3.79,33.36-18.41,39.53-9.98,4,10.86-10.46,26.04-19.51,30.74-3.65,1.68-10.36,4.53-12.97,1.14-1.03-2.23-.54-5.2-.78-7.74-.08-3.83-2.91-7.25-6.44-7.51-4.29-.48-8.55,1.73-10.19,5.81-1.97,6.15,5.47,12.13,10.19,15.37,24.36,14.5,80.7-10.93,104.7-22.47-8.62,14.82-10.97,31.44,10.34,23.95,12.01-4.73,24.56-13.33,35.36-19.59-5.82,6.72-8.89,17.89,4.65,18.45,2.96,.3,6.88-.23,11.75-1.6,10.7-3.01,22.46-7.34,33.26-12.07,11.12-4.68,23.47-10.76,33.7-15.62,.6-1.24,1.14-2.61,1.55-4.11,.47-1.71,.74-3.37,.83-4.91-.06,.01-.11,.03-.17,.04Z"/></g></g></svg>