<svg id="Layer_1" data-name="Layer 1" xmlns="http://www.w3.org/2000/svg" viewBox="0 0 435 211"><defs><style>.cls-1{fill:#005435;}.cls-2{fill:#fff;}.cls-2,.cls-3,.cls-4{fill-rule:evenodd;}.cls-3{fill:#ea9804;}</style></defs><rect class="cls-1" width="435" height="211"/><path class="cls-2" d="M109.32,120.38v-2.5a.66.66,0,0,1,.3-.54A2.21,2.21,0,0,1,111,117l16.77,0h0a9.85,9.85,0,0,1,4.33,1l2,.94-1.67-10.17H99.89a8.84,8.84,0,0,0-6,2.22,7.52,7.52,0,0,0-2.66,5.79l-.11,10.9h0a7,7,0,0,0,2.68,5.46,9.76,9.76,0,0,0,6.41,2.27h0l15,.06h0c.72,0,1.08.37,1.08,1.13v2.1a1,1,0,0,1-1.14,1.12l-17,0a16.18,16.18,0,0,1-5.3-1.09l-1.78-.64,1.54,10h32.94a9,9,0,0,0,6.14-2.24,7.43,7.43,0,0,0,2.64-5.72l.07-11.13h0a6.87,6.87,0,0,0-2.63-5.42,9.43,9.43,0,0,0-6.34-2.22l-14.36,0c-1.2,0-1.81-.33-1.81-1M254.37,82a4.93,4.93,0,0,1,2.34-.59h5.1l0,6h0c0,1.5-.92,2.26-2.76,2.26l-4.64,0h0a3.27,3.27,0,0,1-2.18-.69,1.86,1.86,0,0,1-.72-1.49l.07-18.94h0a1.82,1.82,0,0,1,.66-1.44,3.2,3.2,0,0,1,2.12-.67l19.07,0a14.4,14.4,0,0,1,3.84.5l1.68.45-1.45-9H243.33A10.09,10.09,0,0,0,236.49,61a8.21,8.21,0,0,0-3,6.39l0,21.6h0a8,8,0,0,0,3,6.21,10.33,10.33,0,0,0,7,2.54h18.2a5.41,5.41,0,0,0,3.37-1.1,5.19,5.19,0,0,0,.49-.43l.67,1.53h17l-1.91-1.92a4.22,4.22,0,0,1-1.31-3h0l-.06-14.47a4.6,4.6,0,0,1,.27-1.74,3.65,3.65,0,0,1,.91-1.2l2.05-1.94H252.71v9.49Zm-45,14-1.14,1.74h23.21l-1.32-1.79a7,7,0,0,1-1-2,6.65,6.65,0,0,1-.37-2.06l0-28.3a7.39,7.39,0,0,1,1.16-3.45l.95-1.68H208.46l1.15,1.75a6,6,0,0,1,1.11,3.32V91.81a6.79,6.79,0,0,1-.36,2A8.33,8.33,0,0,1,209.37,96Zm-51.43,0-1.13,1.74H197.2a8.89,8.89,0,0,0,6-2.12,7,7,0,0,0,2.57-5.42h0l0-6.56h0a6.36,6.36,0,0,0-2.18-4.78,8.44,8.44,0,0,0-1.92-1.36,8.47,8.47,0,0,0,1.95-1.29,5.61,5.61,0,0,0,2.15-4.3v-6a6.83,6.83,0,0,0-2.49-5.38,8.61,8.61,0,0,0-5.87-2.1H157.36l1,1.69a7.1,7.1,0,0,1,1.1,3.42V91.76A7.91,7.91,0,0,1,157.94,96Zm19.64-22.31V66.5h8.12a3,3,0,0,1,1.83.41,1.26,1.26,0,0,1,.33,1v4.46a1.1,1.1,0,0,1-.33.9,3,3,0,0,1-1.83.41Zm-.06,16V81.84h8a3.34,3.34,0,0,1,2,.44,1.28,1.28,0,0,1,.35,1l0,5.06h0a1.18,1.18,0,0,1-.35,1,3,3,0,0,1-1.8.41Zm169.36,58.36,1.54-9.74-1.75.59a20.5,20.5,0,0,1-6.33,1.2H326.57V132H341a6.76,6.76,0,0,1,3.09.62l1.64.84V122.71l-1.58.7a7.74,7.74,0,0,1-3.2.61H326.57v-7.17h14.88a13,13,0,0,1,4.38.8l1.8.65-1.54-9.48H306.32l1.09,1.73a6.29,6.29,0,0,1,1.13,3.34v28.26a7.12,7.12,0,0,1-.4,2.18,7,7,0,0,1-1,2l-.51.72-1-.9a22.1,22.1,0,0,1-3.75-4.37h0l-13.83-20.89,6.22-6.21h0a18.07,18.07,0,0,1,5-3.69l4.43-2.14h-19.4l.21,1.3a5.81,5.81,0,0,1,.05.72,3.63,3.63,0,0,1-1.11,2.66l-10.77,10.82,0-10.38a4.85,4.85,0,0,1,.21-1.48,9,9,0,0,1,1-1.91l1.11-1.73H252.43l1.11,1.73a8.12,8.12,0,0,1,.89,1.91,5.12,5.12,0,0,1,.27,1.47v28.18a7.05,7.05,0,0,1-.4,2.06,8.5,8.5,0,0,1-1,2.15l-1.22,1.77h23.24l-1.25-1.78a7.1,7.1,0,0,1-1.41-4.14v-5.91l2.81-2.85,9.75,14.68Zm-135,0h28.31a10.44,10.44,0,0,0,7.07-2.53,8.12,8.12,0,0,0,3-6.29h0l.1-21.61h0a8,8,0,0,0-3-6.28,10.49,10.49,0,0,0-7.15-2.56H212.11a10.31,10.31,0,0,0-7,2.59,8,8,0,0,0-3,6.25l0,21.58h0a8.13,8.13,0,0,0,3,6.29A10,10,0,0,0,211.83,148.09Zm8.32-9.94,0-19.42a1.57,1.57,0,0,1,.58-1.22,2.7,2.7,0,0,1,1.82-.58h7.29a2.74,2.74,0,0,1,1.85.6,1.64,1.64,0,0,1,.6,1.28v19.45a1.65,1.65,0,0,1-.6,1.32,2.93,2.93,0,0,1-2,.61h-7.44a2.2,2.2,0,0,1-1.55-.54,2,2,0,0,1-.59-1.5Zm-82.22,8.17-1.22,1.77h13.92l-1.1-1.73a7.8,7.8,0,0,1-1.38-4.2l0-17,9,23h12.93l9.4-23.73-.06,17.83a7.58,7.58,0,0,1-1.34,4.16L177,148.09h23.1l-1.17-1.75a7.54,7.54,0,0,1-1.36-4.25l0-28.18a7.14,7.14,0,0,1,1.13-3.4l1-1.69H176.23l-7.75,19.62-7.72-19.62h-23.5l.94,1.68a10.47,10.47,0,0,1,.92,2.17,4.6,4.6,0,0,1,.25,1.23l-.06,28.25h0A7.18,7.18,0,0,1,137.93,146.32Z"/><path class="cls-3" d="M253.83,81a6.4,6.4,0,0,1,2.88-.72h6.22l0,7.18c0,2.12-1.4,3.38-3.89,3.38l-4.63,0c-2.39,0-4-1.42-4-3.31l.07-18.93c0-1.8,1.52-3.23,3.91-3.23h19.07a21.79,21.79,0,0,1,4.13.53l-1-6.34H243.33c-4.64,0-8.72,3.41-8.72,7.8l0,21.59c0,4.12,4,7.62,8.82,7.62h18.2a3.78,3.78,0,0,0,4-3l1.31,3h13.53a5.54,5.54,0,0,1-1.64-3.83l-.06-14.47a4.44,4.44,0,0,1,1.53-3.76H253.83ZM159,96.58h38.32c4.15,0,7.41-2.78,7.44-6.42l0-6.51c0-2.86-2.46-5.69-7.1-6.23,4.77-.49,7.1-3.22,7.1-5.55v-6c0-3.62-3.2-6.34-7.23-6.34H159.39a8.62,8.62,0,0,1,1.25,4V91.73A9.37,9.37,0,0,1,159,96.58ZM308.15,147H346l1.11-6.95a20.74,20.74,0,0,1-6.69,1.26H325.5V130.89H341a8.08,8.08,0,0,1,3.62.74v-7.2a9.9,9.9,0,0,1-3.66.71H325.5v-9.42h16a13.13,13.13,0,0,1,4.77.87l-1.09-6.65H308.43a8.24,8.24,0,0,1,1.3,3.94v28.26A9.1,9.1,0,0,1,308.15,147Zm-53.85,0h18.92a8.83,8.83,0,0,1-1.61-4.79v-6.37l4.1-4.16L285.89,147H305a26.71,26.71,0,0,1-3.95-4.59l-14.33-21.65,6.87-6.86a19.23,19.23,0,0,1,5.34-3.91H285.72a4.87,4.87,0,0,1-1.36,4.35L271.67,127l0-13.09a6.61,6.61,0,0,1,1.36-4H254.56a8.31,8.31,0,0,1,1.33,4v28.19A10.44,10.44,0,0,1,254.3,147Zm-42.38,0h28.31c5,0,8.9-3.45,8.92-7.69l.11-21.56c0-4.22-3.89-7.76-9-7.76h-28c-4.79,0-8.91,3.59-8.91,7.71l0,21.58C203.26,143.46,207.24,147,211.92,147Zm7.13-8.78,0-19.42c0-1.64,1.44-2.93,3.53-2.93h7.29c2.13,0,3.57,1.36,3.57,3v19.44c0,1.75-1.42,3.06-3.7,3.06h-7.22A3.11,3.11,0,0,1,219.05,138.17ZM138.9,147h9.72a9.41,9.41,0,0,1-1.56-4.81l0-23L158,147h11.39l11.32-28.55-.09,23.78a9.23,9.23,0,0,1-1.51,4.77H198a8.4,8.4,0,0,1-1.55-4.88l0-28.17a7.93,7.93,0,0,1,1.27-4H177l-8.52,21.56L160,109.94H139.22a9.66,9.66,0,0,1,1.31,4l-.06,28.24A8.55,8.55,0,0,1,138.9,147Zm-30.64-26.58c0,1.19.87,2.12,2.94,2.12l14.35,0c4.53,0,7.87,3,7.84,6.56l-.06,11.07c0,3.91-3.45,6.84-7.65,6.84h-32l-1.1-7.15A17.13,17.13,0,0,0,98.27,141l17,0a2.15,2.15,0,0,0,2.28-2.25v-2.09a2.08,2.08,0,0,0-2.21-2.26l-15.06-.06c-4.55,0-8-3.14-8-6.64l.11-10.87c0-4,3.54-6.89,7.57-6.89h31.57l1.17,7.09a11.65,11.65,0,0,0-4.83-1.16l-16.77,0c-1.84,0-2.83,1-2.83,2Zm102.1-23.79h18.9a8.49,8.49,0,0,1-1.59-4.72l0-28.3a8.31,8.31,0,0,1,1.3-4H210.6a7.77,7.77,0,0,1,1.29,3.94V91.79A9.73,9.73,0,0,1,210.36,96.58ZM176.52,74.85V65.42h9.25c2.41,0,3.3,1,3.3,2.53v4.47c0,1.47-.91,2.43-3.3,2.43Zm-.06,16V80.72h9.1c2.6,0,3.49,1,3.49,2.59l0,5.07c0,1.54-.95,2.5-3.28,2.5Z"/><path class="cls-4" d="M183.34,89.75V87.81a1.24,1.24,0,0,0-.36-1,3.3,3.3,0,0,0-2-.44h-3.46V81.84h8a3.34,3.34,0,0,1,2,.44,1.28,1.28,0,0,1,.35,1l0,5.06h0a1.18,1.18,0,0,1-.35,1,3,3,0,0,1-1.8.41ZM304.1,144.53V118.4a6.29,6.29,0,0,0-1.12-3.34l-1.09-1.72,4.5-4.51,1.1,1.72a6.36,6.36,0,0,1,1.11,3.35v28.26a7.14,7.14,0,0,1-.39,2.18,7,7,0,0,1-1,2l-.51.71-1-.89A18.81,18.81,0,0,1,304.1,144.53Zm43.57-26.28-4.51,4.5-1.8-.64a12.74,12.74,0,0,0-4.38-.8H326.6V116.8h14.89a13,13,0,0,1,4.38.8Zm-1.91,15.23-1.64-.85A6.79,6.79,0,0,0,341,132H326.6v4.51h9.92a6.82,6.82,0,0,1,3.1.61l1.64.84Zm1.14,14.61-4.51,4.5H280.74l-8.05-12.12v-4.21l2.81-2.85,9.75,14.68Zm-176.83,0H157.14l-9-23,0,16,4.48,11.48h12.93ZM134.12,119l-3.61,3.62a9.86,9.86,0,0,0-5-1.25l-14.36,0c-1.2,0-1.8-.33-1.8-1v-2.51a.69.69,0,0,1,.3-.54,2.23,2.23,0,0,1,1.4-.38l16.77,0h0a9.84,9.84,0,0,1,4.34,1Zm-2,26.49-4.5,4.51-.42.39a8.92,8.92,0,0,1-6.13,2.23H88.16l-1.54-10,4-4a9.16,9.16,0,0,1-1.32-1,6.9,6.9,0,0,1-2.68-5.45h0l.1-10.91a7.48,7.48,0,0,1,2.24-5.39l4.51-4.5a7.42,7.42,0,0,0-2.24,5.39l-.11,10.91h0a7,7,0,0,0,2.68,5.46,9.72,9.72,0,0,0,6.41,2.28h0l15,.05h0c.73,0,1.09.38,1.09,1.13v2.1a1,1,0,0,1-1.14,1.12l-17,0a16.18,16.18,0,0,1-5.3-1.09l-1.78-.64,1.54,10h32.94a9,9,0,0,0,6.14-2.24C131.89,145.72,132,145.6,132.16,145.46Zm.93-32.5.23,1.43.34.61a10.59,10.59,0,0,1,.93,2.18,4.91,4.91,0,0,1,.24,1.23l-.06,28.24h0a7.28,7.28,0,0,1-1.37,4.17l-1.23,1.76h13.92l4.51-4.5H136.68l1.22-1.77a7.18,7.18,0,0,0,1.38-4.17h0l.06-28.24a4.76,4.76,0,0,0-.24-1.23,10.59,10.59,0,0,0-.93-2.18l-.94-1.68Zm34,12,1.36,3.45,7.75-19.62-4.5,4.51Zm37.44-13-4.5,4.5a7.84,7.84,0,0,0-2.47,5.72l0,20.92a7.87,7.87,0,0,0,1.29,3.25l1.17,1.75h-23.1l1.12-1.74a7.58,7.58,0,0,0,1.34-4.16l.06-17.83-4.53,11.43,0,10.9a7.62,7.62,0,0,1-1.33,4.17l-1.12,1.73h23.09l3.81-3.8a10.24,10.24,0,0,0,8,3.8h28.3a10.38,10.38,0,0,0,7.07-2.53c.19-.16.37-.33.53-.49l4.51-4.51-.53.5a10.44,10.44,0,0,1-7.07,2.53H211.86a9.93,9.93,0,0,1-6.83-2.56,8.13,8.13,0,0,1-3-6.29h0l0-21.58A7.86,7.86,0,0,1,204.58,112Zm44,.72,3.84-3.85,1.11,1.74a8.26,8.26,0,0,1,.89,1.9,5.24,5.24,0,0,1,.27,1.47v28.19a7.11,7.11,0,0,1-.4,2.06,8.41,8.41,0,0,1-1,2.14l-1.22,1.77h23.23l-4.5,4.5H247.58l1.22-1.76a8.5,8.5,0,0,0,1-2.15,7.12,7.12,0,0,0,.41-2.06v-6.83c0-.17,0-.34,0-.52h0l.11-21.6h0A7.81,7.81,0,0,0,248.59,112.67Zm24.1,11.64h0l10.78-10.8a3.73,3.73,0,0,0,1.11-2.68,4.34,4.34,0,0,0-.06-.71l-.21-1.3-4.5,4.51.2,1.29a4.56,4.56,0,0,1,.06.72A3.71,3.71,0,0,1,279,118Zm-44.9,15.88V123.32a1.64,1.64,0,0,0-.6-1.27,2.72,2.72,0,0,0-1.85-.61h-5.19v-2.7a1.55,1.55,0,0,1,.59-1.23,2.71,2.71,0,0,1,1.81-.58h7.29a2.75,2.75,0,0,1,1.85.61,1.64,1.64,0,0,1,.6,1.27v19.45a1.66,1.66,0,0,1-.6,1.33,3,3,0,0,1-2,.6Zm76-31.4-4.43,2.13a18.07,18.07,0,0,0-5,3.69h0l-4.49,4.49h0l.26-.26a18.12,18.12,0,0,1,4.77-3.43l4.42-2.14Zm-99.7-33-1.9,1.91-.45-.25a8.26,8.26,0,0,0,2-1.29A4.73,4.73,0,0,0,204.11,75.81Zm-.46,19.3-.48.45a8.88,8.88,0,0,1-6,2.11H156.78l1.13-1.74a7.88,7.88,0,0,0,1.5-4.23V63.52a7,7,0,0,0-1.11-3.42l-1-1.69-4.5,4.5,1,1.69A7.13,7.13,0,0,1,154.91,68V96.21a7.88,7.88,0,0,1-1.5,4.23l-1.14,1.74h40.39a8.92,8.92,0,0,0,6-2.12l.48-.44Zm25.21-2a6.39,6.39,0,0,0,.22.8,7.1,7.1,0,0,0,1,2l1.32,1.79H208.2l1.14-1.74a8.26,8.26,0,0,0,1-2.16,6.79,6.79,0,0,0,.36-2V63.48a6.07,6.07,0,0,0-1.11-3.33l-1.15-1.74-3.7,3.7a6.76,6.76,0,0,1,1.08,3.77v.18a5.28,5.28,0,0,1,.37,1.92V96.26a7.08,7.08,0,0,1-.35,2,8.34,8.34,0,0,1-1,2.17l-1.14,1.74H226.9l3.76-3.76a9.65,9.65,0,0,0,1.18,1.22,10.33,10.33,0,0,0,7,2.54H257a5.41,5.41,0,0,0,3.37-1.1,5.19,5.19,0,0,0,.49-.43l.67,1.53h17l4.5-4.51h-17l-.67-1.53a5.41,5.41,0,0,1-3.87,1.53h-18.2a10.23,10.23,0,0,1-7-2.54,8,8,0,0,1-3-6.2h0l0-21.59a8,8,0,0,1,2.47-5.89l-4.49,4.49a8.05,8.05,0,0,0-2.49,5.9ZM278.8,67.44,274.29,72l-1.67-.45a14.87,14.87,0,0,0-3.84-.5H251.42v-2.4h0a1.82,1.82,0,0,1,.66-1.44,3.13,3.13,0,0,1,2.12-.67l19.07,0a14.86,14.86,0,0,1,3.84.49ZM251.42,86l0-11.39,1.2-1.2v9.5L254.3,82a5,5,0,0,1,2.35-.59h5.09l0,6h0c0,1.51-.92,2.26-2.76,2.26h-1.72l0-3.81h-5.1A4.37,4.37,0,0,0,251.42,86Zm28.8-9.82L283,73.44l-2,1.94A4.41,4.41,0,0,0,280.22,76.18Zm-96.86-2.5V72.41a1.22,1.22,0,0,0-.34-1,2.92,2.92,0,0,0-1.83-.42h-3.61V66.5h8.12a3,3,0,0,1,1.83.41,1.26,1.26,0,0,1,.33,1v4.46a1.1,1.1,0,0,1-.33.9,3,3,0,0,1-1.83.41Z"/></svg>