<?xml version="1.0" encoding="UTF-8"?>
<svg width="123px" height="60px" viewBox="0 0 123 60" version="1.1" xmlns="http://www.w3.org/2000/svg" xmlns:xlink="http://www.w3.org/1999/xlink">
    <title>ashton-logo-gold</title>
    <g id="Page-1" stroke="none" stroke-width="1" fill="none" fill-rule="evenodd">
        <g id="ACB---Spirits---Desktop-Copy" transform="translate(-50.000000, -30.000000)" fill-rule="nonzero">
            <g id="ashton-logo-gold" transform="translate(50.000000, 30.000000)">
                <path d="M11.3034483,52.5586207 C10.8939341,50.8495516 9.31226244,49.684416 7.55862069,49.8 C6.62854118,49.8002492 5.72711196,50.1218402 5.00689655,50.7103448 C4.31724138,51.2758621 3.62758621,52.2344828 3.62758621,54.3862069 C3.62758621,57.5586207 5.65517241,58.862069 7.8,58.862069 C9.22885846,58.8632051 10.604649,58.3207788 11.6482759,57.3448276 L11.9517241,57.6206897 C10.7701047,58.9043093 9.0807045,59.5987563 7.33793103,59.5172414 C4.57931034,59.5172414 1.64827586,58.0827586 1.64827586,54.3586207 C1.64827586,51.0068966 4.51034483,49.2 7.44137931,49.2 C8.45280719,49.2639336 9.45540862,49.4279537 10.4344828,49.6896552 C10.5241379,49.6896552 11.0827586,49.6896552 11.2206897,49.2 L11.5793103,49.2 L11.7241379,52.5586207 L11.3034483,52.5586207 Z" id="Path" fill="#38393A"></path>
                <path d="M16.2068966,59.0137931 C17.6551724,59.0137931 17.8551724,58.7310345 17.8551724,57.6689655 L17.8551724,51.0344828 C17.8551724,49.9241379 17.6206897,49.7448276 16.2068966,49.6551724 L16.2068966,49.3724138 L21.262069,49.3724138 L21.262069,49.6551724 C20.0206897,49.7034483 19.5931034,49.8068966 19.5931034,51.0344828 L19.5931034,57.6689655 C19.5931034,58.8344828 20,58.9862069 21.262069,59.0137931 L21.262069,59.3103448 L16.2068966,59.3103448 L16.2068966,59.0137931 Z" id="Path" fill="#38393A"></path>
                <path d="M37.0482759,54.2758621 C36.2965517,54.337931 35.8551724,54.3655172 35.8551724,55.4275862 L35.8551724,58.4344828 C35.8551724,58.6413793 33.5862069,59.5103448 31.7172414,59.5103448 C29.9817162,59.5918141 28.2772516,59.0293899 26.9310345,57.9310345 C26.0275862,57.062069 25.5517241,56.1793103 25.5517241,54.2206897 C25.5517241,51.7103448 27.7655172,49.2137931 31.3793103,49.2137931 C33.0965517,49.2137931 33.8758621,49.7034483 34.4206897,49.7034483 C34.5586207,49.7034483 35.1103448,49.6275862 35.2206897,49.2137931 L35.6,49.2137931 L35.737931,52.3655172 L35.3103448,52.3655172 C34.7781129,50.7756299 33.253982,49.7332483 31.5793103,49.8137931 C29.9655172,49.8137931 27.4413793,50.7517241 27.4413793,54.537931 C27.3652084,55.7272166 27.8054852,56.8916025 28.6494799,57.7329556 C29.4934746,58.5743086 30.659235,59.0109332 31.8482759,58.9310345 C33.0068966,58.9310345 34.1793103,58.5862069 34.1793103,58.0482759 L34.1793103,55.6068966 C34.1793103,54.3655172 33.8413793,54.3517241 32.6827586,54.2758621 L32.6827586,54.0068966 L37.0275862,54.0068966 L37.0482759,54.2758621 Z" id="Path" fill="#38393A"></path>
                <path d="M52.6896552,59.3103448 L48.3517241,59.3103448 L48.3517241,59.0206897 C48.9793103,59.0206897 49.537931,59.0206897 49.537931,58.4551724 C49.4811424,58.1249134 49.371704,57.8059123 49.2137931,57.5103448 L48.5241379,56.0758621 L44.0551724,56.0758621 L43.2758621,57.8275862 C43.1901792,58.0041335 43.1431551,58.196932 43.137931,58.3931034 C43.137931,59.0206897 43.937931,59.0206897 44.2965517,59.0206897 L44.2965517,59.3103448 L40.9241379,59.3103448 L40.9241379,59.0206897 C41.2451568,59.0311732 41.5573724,58.9147119 41.7931034,58.6965517 C42.2929346,58.0349876 42.7098332,57.3146795 43.0344828,56.5517241 L46.5793103,49.2068966 L46.8965517,49.2068966 L51.137931,57.7034483 C51.6827586,58.7931034 51.9172414,58.9586207 52.6689655,59 L52.6896552,59.3103448 Z M48.2758621,55.4551724 L46.2965517,51.3172414 L44.337931,55.4551724 L48.2758621,55.4551724 Z" id="Shape" fill="#38393A"></path>
                <path d="M67.5862069,59.3103448 L64.8275862,59.3103448 L60.7724138,54.7034483 L59.8206897,54.7034483 L59.8206897,57.6482759 C59.8206897,58.6482759 59.9862069,58.937931 61.3517241,58.9931034 L61.3517241,59.3103448 L56.6551724,59.3103448 L56.6551724,59.0206897 C58.0344828,58.9517241 58.1034483,58.6344828 58.1034483,57.5103448 L58.1034483,51.0344828 C58.1034483,49.9241379 57.8482759,49.7931034 56.6551724,49.6551724 L56.6551724,49.3724138 L61.3793103,49.3724138 C62.8965517,49.3724138 65.7034483,49.6896552 65.7034483,51.9931034 C65.7034483,53.9931034 63.4965517,54.3517241 62.6275862,54.5034483 L66.1310345,58.2827586 C66.5005095,58.7186039 67.0424177,58.9706543 67.6137931,58.9724138 L67.5862069,59.3103448 Z M59.8413793,54.1724138 C61.2689655,54.1724138 63.8206897,54.1241379 63.8206897,51.9862069 C63.8206897,50 61.5931034,49.9517241 60.8965517,49.9517241 C59.9931034,49.9517241 59.8413793,50.062069 59.8413793,50.4896552 L59.8413793,54.1724138 Z" id="Shape" fill="#38393A"></path>
                <path d="M79.0758621,49.4 L83.8413793,49.4 C85.3241379,49.4 88.3034483,49.6068966 88.3034483,51.9310345 C88.3034483,53.5862069 86.8068966,53.9172414 86.0413793,54.0827586 L86.0413793,54.0827586 C87.5172414,54.3517241 88.8827586,55.0689655 88.8827586,56.6413793 C88.8827586,57.2068966 88.537931,59.2758621 84.7448276,59.2758621 L79.062069,59.2758621 L79.062069,58.9862069 C80.4896552,58.9862069 80.6965517,58.7034483 80.6965517,57.6413793 L80.6965517,51.0344828 C80.6965517,49.9241379 80.4551724,49.7448276 79.062069,49.6551724 L79.0758621,49.4 Z M82.4482759,53.8413793 L84.062069,53.8413793 C84.537931,53.8413793 86.5655172,53.8413793 86.5655172,52.0344828 C86.5655172,50.2275862 84.7931034,49.9655172 83.5862069,49.9655172 C83.2275862,49.9655172 82.9931034,49.9655172 82.8206897,49.9655172 C82.4827586,49.9655172 82.4482759,50.1724138 82.4482759,50.3931034 L82.4482759,53.8413793 Z M82.4482759,58.1310345 C82.4482759,58.6896552 82.7517241,58.7448276 83.737931,58.7448276 C84.862069,58.7448276 86.9241379,58.6137931 86.9241379,56.6068966 C86.9241379,55.3793103 86.0896552,54.8896552 85.2068966,54.6482759 C84.3013907,54.4514925 83.3735501,54.3772652 82.4482759,54.4275862 L82.4482759,58.1310345 Z" id="Shape" fill="#38393A"></path>
                <path d="M105.565517,59.3103448 L101.227586,59.3103448 L101.227586,59.0206897 C101.855172,59.0206897 102.413793,59.0206897 102.413793,58.4551724 C102.357004,58.1249134 102.247566,57.8059123 102.089655,57.5103448 L101.4,56.0758621 L96.937931,56.0758621 L96.1586207,57.8275862 C96.0729378,58.0041335 96.0259138,58.196932 96.0206897,58.3931034 C96.0206897,59.0206897 96.8206897,59.0206897 97.1793103,59.0206897 L97.1793103,59.3103448 L93.7931034,59.3103448 L93.7931034,59.0206897 C94.114,59.0304285 94.4259426,58.914069 94.662069,58.6965517 C95.160447,58.0414512 95.5773006,57.3281684 95.9034483,56.5724138 L99.4482759,49.2275862 L99.7862069,49.2275862 L104.027586,57.7241379 C104.572414,58.8137931 104.806897,58.9793103 105.558621,59.0206897 L105.565517,59.3103448 Z M101.158621,55.462069 L99.1793103,51.3241379 L97.2206897,55.462069 L101.158621,55.462069 Z" id="Shape" fill="#38393A"></path>
                <path d="M120.462069,59.3103448 L117.703448,59.3103448 L113.648276,54.7034483 L112.696552,54.7034483 L112.696552,57.6482759 C112.696552,58.6482759 112.862069,58.937931 114.227586,58.9931034 L114.227586,59.3103448 L109.510345,59.3103448 L109.510345,59.0206897 C110.889655,58.9517241 110.958621,58.6344828 110.958621,57.5103448 L110.958621,51.0344828 C110.958621,49.9241379 110.703448,49.7931034 109.510345,49.6551724 L109.510345,49.3724138 L114.206897,49.3724138 C115.724138,49.3724138 118.531034,49.6896552 118.531034,51.9931034 C118.531034,53.9931034 116.324138,54.3517241 115.455172,54.5034483 L118.958621,58.2827586 C119.328096,58.7186039 119.870004,58.9706543 120.441379,58.9724138 L120.462069,59.3103448 Z M112.717241,54.1793103 C114.144828,54.1793103 116.696552,54.1310345 116.696552,51.9931034 C116.696552,50.0068966 114.468966,49.9586207 113.772414,49.9586207 C112.868966,49.9586207 112.717241,50.0689655 112.717241,50.4965517 L112.717241,54.1793103 Z" id="Shape" fill="#38393A"></path>
                <path d="M6.31724138,32.9241379 L9.93793103,23.8689655 L13.5793103,32.9241379 L6.31724138,32.9241379 Z M21.7241379,40.7655172 C20.3448276,40.662069 19.9034483,40.3034483 18.8965517,37.8965517 L11.0689655,19.1931034 L10.4344828,19.1931034 L3.89655172,35.3655172 C3.30344828,36.8137931 2.32413793,39.2137931 1.60689655,40.0413793 C1.19618498,40.4928028 0.610156301,40.7443172 0,40.7310345 L0,41.3793103 L6.20689655,41.3793103 L6.20689655,40.7586207 C5.51724138,40.7586207 4.06896552,40.7586207 4.06896552,39.3793103 C4.08122141,38.9522492 4.16514842,38.5302828 4.31724138,38.1310345 L5.76551724,34.2758621 L14.0206897,34.2758621 L15.3103448,37.4344828 C15.603028,38.0938166 15.8048702,38.789824 15.9103448,39.5034483 C15.9103448,40.7241379 14.8689655,40.7586207 13.7103448,40.7586207 L13.7103448,41.3793103 L21.7241379,41.3793103 L21.7241379,40.7655172 Z" id="Shape" fill="#636566"></path>
                <path d="M36.0206897,27.4827586 L35.3310345,27.4827586 C34.8482759,25.0206897 33.0137931,22.3172414 30,22.3172414 C29.2447763,22.2794323 28.5071409,22.5532934 27.9595698,23.0747896 C27.4119987,23.5962859 27.1025024,24.3196931 27.1034483,25.0758621 C27.1034483,29.5862069 36.6827586,30.1862069 36.6827586,36.337931 C36.6827586,38.8896552 34.7310345,41.7724138 30.6344828,41.7724138 C28.4551724,41.7724138 27.0482759,40.7517241 26.1862069,40.7517241 C25.9340314,40.7584393 25.6957531,40.8687169 25.5274297,41.0566127 C25.3591064,41.2445085 25.2755983,41.4934344 25.2965517,41.7448276 L24.6689655,41.7448276 L23.8068966,35.3793103 L24.4965517,35.3793103 C25.0413793,36.7586207 26.5034483,40.6896552 30.3724138,40.6896552 C31.2803631,40.7376599 32.1674222,40.4061546 32.8213568,39.7744537 C33.4752914,39.1427529 33.837271,38.2676869 33.8206897,37.3586207 C33.8206897,35.6482759 33.3655172,34.6 29.1448276,32.0413793 C26.5103448,30.4551724 24.6758621,29.1310345 24.6758621,26.1586207 C24.6758621,22.7103448 27.2827586,21.0551724 29.862069,21.0551724 C31.5862069,21.0551724 33.1310345,22.0758621 33.8482759,22.0758621 C34.5655172,22.0758621 34.7931034,21.3862069 34.8551724,21.0551724 L35.4551724,21.0551724 L36.0206897,27.4827586 Z" id="Path" fill="#636566"></path>
                <path d="M39.062069,40.8206897 C41.4689655,40.6965517 41.5862069,40.0344828 41.5862069,37.7862069 L41.5862069,24.7793103 C41.5862069,22.5586207 41.1862069,22.262069 39.062069,22.0827586 L39.062069,21.5103448 L47.0344828,21.5103448 L47.0344828,22.0689655 C44.8551724,22.2482759 44.5103448,22.6344828 44.5103448,24.7655172 L44.5103448,30.5931034 L53.1931034,30.5931034 L53.1931034,24.7793103 C53.1931034,22.5586207 52.7931034,22.262069 50.6758621,22.0827586 L50.6758621,21.5103448 L58.6206897,21.5103448 L58.6206897,22.0689655 C56.4413793,22.2482759 56.0965517,22.6344828 56.0965517,24.7655172 L56.0965517,38.1172414 C56.0965517,40.0965517 56.3862069,40.6689655 58.6206897,40.8206897 L58.6206897,41.3793103 L50.6758621,41.3793103 L50.6758621,40.8137931 C53.0827586,40.6896552 53.1931034,40.0275862 53.1931034,37.7793103 L53.1931034,31.9310345 L44.5103448,31.9310345 L44.5103448,38.137931 C44.5103448,40.1172414 44.7931034,40.6896552 47.0344828,40.8413793 L47.0344828,41.3793103 L39.062069,41.3793103 L39.062069,40.8206897 Z" id="Path" fill="#636566"></path>
                <path d="M74.3517241,41.3793103 L65.9793103,41.3793103 L65.9793103,40.8137931 C68.5931034,40.6896552 68.6758621,40 68.6758621,37.7793103 L68.6758621,22.7586207 L67.1310345,22.7586207 C63.9724138,22.7586207 63.2,23.3241379 62.5724138,26.6 L61.8827586,26.6 L62.0551724,21.4965517 L78.2206897,21.4965517 L78.3931034,26.6 L77.7034483,26.6 C77.0965517,23.2965517 76.3241379,22.7586207 73.1448276,22.7586207 L71.5931034,22.7586207 L71.5931034,38.1172414 C71.5931034,40.1862069 71.937931,40.7241379 74.3517241,40.8206897 L74.3517241,41.3793103 Z" id="Path" fill="#636566"></path>
                <path d="M89.337931,40.7241379 C86.1586207,40.7241379 83.2344828,38.0551724 83.2344828,31.4482759 C83.2344828,24.6 86.4137931,22.1724138 89.337931,22.1724138 C92.262069,22.1724138 95.4482759,24.6 95.4482759,31.4482759 C95.4482759,38.0551724 92.5241379,40.7241379 89.337931,40.7241379 Z M89.337931,41.8068966 C94.5310345,41.8068966 98.7172414,37.8758621 98.7172414,31.462069 C98.7172414,24.5655172 94.0413793,21.0758621 89.337931,21.0758621 C84.6344828,21.0758621 80,24.5724138 80,31.4758621 C80,37.8758621 84.137931,41.8068966 89.337931,41.8068966 Z" id="Shape" fill="#636566"></path>
                <path d="M122.282759,20.2137931 C120.303448,20.4413793 119.296552,20.5793103 119.296552,24.4275862 L119.296552,41.7517241 L118.758621,41.7517241 L104.965517,23.7034483 L104.896552,23.7034483 L104.896552,36.5517241 C104.896552,39.937931 105.586207,40.6896552 107.855172,40.7655172 L107.855172,41.3793103 L100.434483,41.3793103 L100.434483,40.7586207 C102.82069,40.5931034 103.482759,40.0689655 103.482759,36.5448276 L103.482759,22.0275862 C102.193103,20.3793103 101.689655,20.2137931 100.434483,20.2137931 L100.434483,19.5862069 L105.806897,19.5862069 L117.848276,35.4482759 L117.931034,35.4482759 L117.931034,24.4275862 C117.931034,20.6413793 117.055172,20.3793103 114.917241,20.2137931 L114.917241,19.5862069 L122.303448,19.5862069 L122.282759,20.2137931 Z" id="Path" fill="#636566"></path>
                <path d="M63.3862069,11.1448276 C66.5283958,11.1039877 69.5333246,12.4302837 71.6206897,14.7793103 L70.0896552,17.2827586 C67.1793103,14.5241379 65.6482759,13.9655172 63.3862069,13.8896552 C61.1241379,13.8137931 59.5931034,14.537931 56.6827586,17.2827586 L55.1724138,14.7793103 C57.2544772,12.4350225 60.25102,11.1090963 63.3862069,11.1448276 L63.3862069,11.1448276 Z" id="Path" fill="#AE8A2F"></path>
                <path d="M56.0551724,12.9586207 L53.2965517,8.59310345 C53.407609,8.21042647 53.3314237,7.79777787 53.0910422,7.47998532 C52.8506607,7.16219277 52.4743191,6.97658549 52.0758621,6.97931034 C51.3862069,6.97931034 51.4344828,6.08965517 51.4344828,5.52413793 C51.4344828,4.95862069 49.9172414,3.11034483 52.4827586,4.39310345 C53.137931,4.71724138 54.262069,3.91034483 54.5103448,5.68965517 C54.7586207,7.46896552 55.3931034,7.06896552 55.9586207,7.14482759 C56.5241379,7.22068966 56.8482759,8.52413793 56.5241379,9.00689655 C56.2,9.48965517 56.9310345,10.6137931 58.062069,10.0551724 C59.1931034,9.49655172 58.9448276,8.67586207 58.3793103,8.35172414 C57.8137931,8.02758621 56.537931,7.66206897 57.6896552,6.33793103 C58.0965517,5.84827586 57.2344828,3.89655172 58.1724138,3.42758621 C59.1103448,2.95862069 59.4965517,5.49655172 60.0965517,5.66896552 C61.7448276,6.24137931 60.8344828,7.19310345 60.5103448,7.73793103 C60.1862069,8.28275862 60.4068966,9.11724138 61.662069,9.02758621 C62.9172414,8.93793103 62.9586207,7.57931034 62.4413793,7.33793103 C61.9241379,7.09655172 61.4965517,5.84137931 61.937931,5.51724138 C62.3793103,5.19310345 63.3172414,4.7862069 62.1655172,3.4 C61.0137931,2.0137931 62.4827586,2.05517241 62.6827586,1.36551724 C63.1655172,-0.337931034 63.7172414,-0.503448276 64.1310345,1.43448276 C64.2827586,2.12413793 65.7862069,2.02068966 64.6482759,3.4 C63.5103448,4.77931034 64.4275862,5.15862069 64.8689655,5.51724138 C65.3103448,5.87586207 64.9172414,7.15172414 64.3862069,7.4 C63.8551724,7.64827586 63.9034483,8.99310345 65.1655172,9.08965517 C66.4275862,9.1862069 66.6275862,8.4 66.3172414,7.8 C66.0068966,7.2 65.0827586,6.27586207 66.7310345,5.73103448 C67.3310345,5.52413793 67.7103448,3.0137931 68.6551724,3.48965517 C69.6,3.96551724 68.737931,5.91034483 69.137931,6.4 C70.262069,7.73793103 68.9793103,8.08965517 68.4482759,8.4137931 C67.9172414,8.73793103 67.6413793,9.54482759 68.7724138,10.1172414 C69.9034483,10.6896552 70.6275862,9.54482759 70.3103448,9.06896552 C69.9931034,8.59310345 70.3103448,7.28965517 70.8758621,7.20689655 C71.4413793,7.12413793 72.0827586,7.53103448 72.3310345,5.75172414 C72.5793103,3.97241379 73.7103448,4.77931034 74.337931,4.45517241 C76.9034483,3.17241379 75.3931034,5.02068966 75.3931034,5.5862069 C75.3931034,6.15172414 75.4758621,7.04137931 74.7448276,7.04137931 C74.3466409,7.03711844 73.9703153,7.22309156 73.7318259,7.54198593 C73.4933365,7.8608803 73.4213055,8.2744241 73.537931,8.65517241 L70.7793103,13.0206897 C68.6593459,11.4385517 66.0723068,10.6085636 63.4275862,10.662069 C60.7899147,10.6343371 58.2104753,11.4378481 56.0551724,12.9586207 Z M59.0827586,7.5862069 C59.3932567,7.58239667 59.6426021,7.32893797 59.6413368,7.01841914 C59.6400619,6.7079003 59.3886514,6.45648982 59.0781326,6.45521489 C58.7676138,6.45394962 58.5141551,6.70329505 58.5103448,7.0137931 C58.5084749,7.16617222 58.568182,7.31285688 58.6759384,7.42061331 C58.7836948,7.52836973 58.9303795,7.58807679 59.0827586,7.5862069 L59.0827586,7.5862069 Z M63.3862069,6.8 C63.5422893,6.80209013 63.6922942,6.73957267 63.8006946,6.62725418 C63.909095,6.51493569 63.9662491,6.36280645 63.9586207,6.20689655 C63.9586207,5.89076114 63.7023423,5.63448276 63.3862069,5.63448276 C63.0689367,5.63446028 62.8106736,5.8896488 62.8068966,6.20689655 C62.8068966,6.35991262 62.8681389,6.5065633 62.9769836,6.61411217 C63.0858282,6.72166105 63.2332019,6.78115391 63.3862069,6.77931034 L63.3862069,6.8 Z M63.3862069,3.35172414 C63.7023423,3.35172414 63.9586207,3.09544575 63.9586207,2.77931034 C63.9586207,2.46317494 63.7023423,2.20689655 63.3862069,2.20689655 C63.0700715,2.20689655 62.8137931,2.46317494 62.8137931,2.77931034 C62.8137931,3.09544575 63.0700715,3.35172414 63.3862069,3.35172414 Z M67.6275862,7.68275862 C67.9437216,7.68275862 68.2,7.42648024 68.2,7.11034483 C68.2,6.79420942 67.9437216,6.53793103 67.6275862,6.53793103 C67.3114508,6.53793103 67.0551724,6.79420942 67.0551724,7.11034483 C67.0551724,7.42648024 67.3114508,7.68275862 67.6275862,7.68275862 Z" id="Shape" fill="#AE8A2F"></path>
                <path d="M65.3241379,8.65517241 C65.642492,8.64767967 65.8966399,8.38740771 65.8965517,8.06896552 C65.8889777,7.75473718 65.6294432,7.50539866 65.3151636,7.51041784 C65.0008841,7.51543701 64.7494439,7.772936 64.7519079,8.08724595 C64.754372,8.4015559 65.0098183,8.65508115 65.3241379,8.65517241 L65.3241379,8.65517241 Z" id="Path" fill="#AE8A2F"></path>
                <path d="M61.537931,8.65517241 C61.8589877,8.65139502 62.1172636,8.39004439 62.1172414,8.06896552 C62.0850458,7.77520672 61.8368971,7.55276898 61.5413793,7.55276898 C61.2458615,7.55276898 60.9977129,7.77520672 60.9655172,8.06896552 C60.9654291,8.38740771 61.219577,8.64767967 61.537931,8.65517241 Z" id="Path" fill="#AE8A2F"></path>
                <path d="M69.1793103,9.77241379 C69.4976644,9.76492105 69.7518123,9.50464909 69.7517242,9.1862069 C69.7441502,8.87197855 69.4846156,8.62264004 69.170336,8.62765922 C68.8560565,8.63267839 68.6046163,8.89017738 68.6070803,9.20448733 C68.6095444,9.51879728 68.8649908,9.77232253 69.1793103,9.77241379 L69.1793103,9.77241379 Z" id="Path" fill="#AE8A2F"></path>
                <path d="M57.5862069,9.77241379 C57.9045609,9.76492105 58.1587089,9.50464909 58.1586207,9.1862069 C58.1510467,8.87197855 57.8915121,8.62264004 57.5772326,8.62765922 C57.2629531,8.63267839 57.0115129,8.89017738 57.0139769,9.20448733 C57.0164409,9.51879728 57.2718873,9.77232253 57.5862069,9.77241379 L57.5862069,9.77241379 Z" id="Path" fill="#AE8A2F"></path>
            </g>
        </g>
    </g>
</svg>